<svg xmlns="http://www.w3.org/2000/svg" viewBox="0 0 64 64" fill="none">
  <circle cx="32" cy="32" r="30" fill="#16a34a"/>
  <path d="M32 14c-10 0-18 8-18 18s8 18 18 18c5 0 9.5-2 12.8-5.3" stroke="#fff" stroke-width="3" stroke-linecap="round"/>
  <path d="M20 32c2-6 8-10 12-10s6 4 6 8-4 8-10 10" stroke="#fff" stroke-width="2.5" stroke-linecap="round"/>
  <path d="M32 22v-6M32 48v-6" stroke="#22c55e" stroke-width="2" stroke-linecap="round"/>
  <circle cx="32" cy="32" r="4" fill="#fff"/>
  <path d="M44 20l-8 8M38 44l6 6" stroke="#15803d" stroke-width="2" stroke-linecap="round"/>
  <ellipse cx="24" cy="38" rx="3" ry="4" fill="#22c55e"/>
  <ellipse cx="40" cy="28" rx="2.5" ry="3.5" fill="#22c55e"/>
</svg>
